<?xml version="1.0" encoding="utf-8"?>
<!-- Generator: Adobe Illustrator 14.0.0, SVG Export Plug-In . SVG Version: 6.00 Build 43363)  -->
<!DOCTYPE svg PUBLIC "-//W3C//DTD SVG 1.1//EN" "http://www.w3.org/Graphics/SVG/1.1/DTD/svg11.dtd">
<svg version="1.1" id="Layer_1" xmlns="http://www.w3.org/2000/svg" xmlns:xlink="http://www.w3.org/1999/xlink" x="0px" y="0px"
	 width="4000px" height="1000.551px" viewBox="300 300 4000 1000.551" enable-background="new 300 300 4000 1000.551" xml:space="preserve">
<g>
	<path fill="#003F5F" d="M1171.646,1138.595c0,40.365-32.716,73.08-73.082,73.08H457.385c-40.355,0-73.077-32.715-73.077-73.08
		V497.42c0-40.363,32.722-73.084,73.077-73.084h641.179c40.367,0,73.082,32.721,73.082,73.084V1138.595L1171.646,1138.595z"/>
</g>
<g>
	<path fill="#FFFFFF" d="M578.167,700.024c-3.133,16.566-6.138,34.699-9.682,56.83l-0.692,4.293l28.134,4.506l0.688-4.297
		c3.479-21.74,6.432-39.59,9.543-56.045l0.805-4.273l-27.983-5.297L578.167,700.024z"/>
	<path fill="#FFFFFF" d="M605.277,611.276c-7.998,13.967-14.524,32.248-20.54,57.533l-1.014,4.236l27.714,6.59l1.007-4.232
		c5.371-22.561,10.948-38.438,17.557-49.977l2.163-3.777L607.44,607.5L605.277,611.276z"/>
	<path fill="#FFFFFF" d="M700.675,591.938c-9.916-11.826-21.707-17.824-35.049-17.824c-13.028,0-24.724,3.14-34.751,9.326
		l-3.709,2.293l14.962,24.232l3.708-2.285c5.536-3.418,12.011-5.08,19.79-5.08c3.175,0,7.545,0.865,13.214,7.637l2.797,3.334
		l21.836-18.297L700.675,591.938z"/>
	<path fill="#FFFFFF" d="M436.696,973.052c-15.153,2.125-32.162,3.074-55.144,3.074H377.2v28.481h4.354
		c24.341,0,42.562-1.029,59.097-3.346l4.311-0.605l-3.948-28.211L436.696,973.052z"/>
	<path fill="#FFFFFF" d="M508.947,942.426c-12.016,11.117-26.396,19.145-43.963,24.539l-4.162,1.272l8.354,27.232l4.161-1.279
		c21.744-6.674,39.722-16.766,54.956-30.854l3.191-2.955l-19.343-20.912L508.947,942.426z"/>
	<path fill="#FFFFFF" d="M547.663,872.97c-5.334,18.875-12.394,35.125-20.999,48.287l-2.376,3.653l23.849,15.57l2.383-3.646
		c10.178-15.582,18.437-34.464,24.553-56.117l1.188-4.188l-27.409-7.75L547.663,872.97z"/>
	<path fill="#FFFFFF" d="M563.562,787.69c-2.388,14.9-5.591,34.678-9.229,55.582l-0.879,4.947l28.059,4.975l0.884-5.033
		c3.533-20.293,6.55-38.891,9.288-55.963l0.692-4.297l-28.134-4.514L563.562,787.69z"/>
	<path fill="#FFFFFF" d="M734.807,680.022c-4.337-18.242-9.724-39.275-16.757-56.973l-1.604-4.048l-26.472,10.511l1.604,4.047
		c6.378,16.055,11.424,35.828,15.521,53.055l1.009,4.236l27.712-6.592L734.807,680.022z"/>
	<path fill="#FFFFFF" d="M957.556,769.254c-5.962-24.396-12.623-43.144-20.354-57.33l-2.083-3.822l-25.011,13.641l2.089,3.822
		c6.532,11.979,12.317,28.48,17.685,50.447l1.039,4.229l27.669-6.762L957.556,769.254z"/>
	<path fill="#FFFFFF" d="M974.623,853.786c-1.987-9.233-3.922-19.616-5.973-30.602l-0.3-1.6c-1.284-6.886-2.609-13.982-4.021-21.154
		l-0.842-4.273l-27.947,5.502l0.842,4.269c1.375,7.022,2.687,14.012,3.954,20.795l0.314,1.686
		c2.071,11.14,4.032,21.662,6.127,31.381l1.508,6.943l27.824-6.064L974.623,853.786z"/>
	<path fill="#FFFFFF" d="M756.121,764.767c-5.424-16.229-10.012-35.646-14.253-54.133l-0.977-4.246l-27.766,6.367l0.976,4.244
		c4.406,19.205,9.196,39.411,14.993,56.791l1.381,4.129l27.021-9.019L756.121,764.767z"/>
	<path fill="#FFFFFF" d="M1004.285,929.683c-7.684-11.123-16.396-23.744-21.909-43.703l-1.162-4.201l-27.456,7.584l1.161,4.197
		c6.726,24.365,17.37,39.846,26.754,53.508l3.145,4.578l23.48-16.135L1004.285,929.683z"/>
	<path fill="#FFFFFF" d="M794.885,798.431c-3.629,2.553-7.865,3.844-13.188,3.955c-4.728,0-9.575-4.021-14.413-11.945l-2.271-3.717
		l-24.312,14.846l2.27,3.715c10.358,16.976,23.393,25.582,38.728,25.582l0.788-0.002c10.801-0.219,20.486-3.293,28.789-9.139
		l3.563-2.508l-16.396-23.297L794.885,798.431z"/>
	<path fill="#FFFFFF" d="M912.761,683.272c-8.68-5.84-18.329-8.799-28.682-8.799c-16.801,0-30.729,6.678-41.401,19.854l-2.744,3.379
		l22.13,17.939l2.743-3.383c5.28-6.521,11.046-9.308,19.272-9.308c4.651,0,8.834,1.294,12.787,3.951l3.613,2.433l15.894-23.634
		L912.761,683.272z"/>
	<path fill="#FFFFFF" d="M826.135,726.163c-2.601,7.277-4.896,14.91-7.167,22.476c-3.218,10.721-6.548,21.803-10.592,30.879
		l-1.77,3.979l26.018,11.591l1.771-3.974c4.795-10.772,8.387-22.735,11.893-34.41c2.121-7.055,4.311-14.35,6.677-20.959l1.46-4.104
		l-26.822-9.572L826.135,726.163z"/>
	<path fill="#E31B23" d="M1054.488,934.795c-33.969,0-61.51,27.536-61.51,61.508c0,33.967,27.541,61.512,61.51,61.512
		c33.974,0,61.51-27.545,61.51-61.512C1115.998,962.331,1088.462,934.795,1054.488,934.795z"/>
</g>
<path fill="#003F5F" d="M1681.412,675.331c48.609,0,84.805,10.896,108.574,32.679c23.764,21.793,35.645,52.492,35.645,92.1v160.43
	h-57.795v-160.43c0-22.686-6.752-39.971-20.258-51.854c-13.508-11.886-35.381-17.822-65.629-17.822h-61.521v230.106h-57.803V730.431
	h-139.302c-4.688,0-7.022,2.699-7.022,8.1v222.008h-57.258V719.63c0-16.927,3.054-28.535,9.181-34.845
	c6.122-6.297,16.385-9.453,30.792-9.453L1681.412,675.331L1681.412,675.331z"/>
<path fill="#003F5F" d="M2075.724,675.334c37.814,0,67.877,11.797,90.209,35.377c22.324,23.594,33.488,59.34,33.488,107.225
	c0,48.26-11.164,84.088-33.488,107.492c-22.332,23.412-52.395,35.11-90.209,35.11h-59.959c-38.172,0-68.33-11.698-90.475-35.11
	c-22.143-23.404-33.215-59.232-33.215-107.492c0-48.254,11.072-84.078,33.215-107.49c22.145-23.406,52.303-35.111,90.475-35.111
	H2075.724L2075.724,675.334z M2021.168,730.431c-24.846,0-42.945,6.842-54.283,20.525c-11.34,13.688-17.02,36.01-17.02,66.979
	c0,30.977,5.68,53.211,17.02,66.707c11.338,13.504,29.438,20.258,54.283,20.258h49.16c24.846,0,42.936-6.754,54.279-20.258
	c11.348-13.496,17.018-35.73,17.018-66.707c0-30.969-5.67-53.289-17.018-66.979c-11.345-13.685-29.435-20.525-54.279-20.525
	H2021.168z"/>
<path fill="#003F5F" d="M2278.279,675.331v-67.52h57.801v67.52h78.859v55.101h-78.859V865.47c0,16.205,2.975,27.367,8.91,33.487
	c5.945,6.132,15.75,9.185,29.438,9.185h39.437v52.396h-51.316c-14.771,0-27.463-1.625-38.082-4.858
	c-10.625-3.248-19.362-8.644-26.198-16.209c-6.843-7.56-11.882-17.64-15.127-30.248c-3.24-12.603-4.859-28.264-4.859-46.994V730.431
	h-38.891v-55.1L2278.279,675.331L2278.279,675.331z"/>
<path fill="#003F5F" d="M2640.73,675.334c37.809,0,67.871,11.797,90.207,35.377c22.325,23.594,33.487,59.34,33.487,107.225
	c0,48.26-11.162,84.088-33.487,107.492c-22.336,23.412-52.398,35.11-90.207,35.11h-59.959c-38.173,0-68.336-11.698-90.476-35.11
	c-22.149-23.404-33.221-59.232-33.221-107.492c0-48.254,11.069-84.078,33.221-107.49c22.139-23.406,52.303-35.111,90.476-35.111
	H2640.73L2640.73,675.334z M2586.174,730.431c-24.846,0-42.945,6.842-54.285,20.525c-11.344,13.688-17.018,36.01-17.018,66.979
	c0,30.977,5.674,53.211,17.018,66.707c11.341,13.504,29.439,20.258,54.285,20.258h49.154c24.85,0,42.939-6.754,54.283-20.258
	c11.35-13.496,17.02-35.73,17.02-66.707c0-30.969-5.67-53.289-17.02-66.979c-11.344-13.685-29.435-20.525-54.283-20.525H2586.174z"
	/>
<path fill="#003F5F" d="M3090.138,675.331v55.101h-141.524c-24.847,0-42.939,6.844-54.277,20.524
	c-11.351,13.688-17.021,36.011-17.021,66.979c0,30.977,5.67,53.211,17.021,66.707c11.338,13.504,29.432,20.258,54.277,20.258
	h141.524v55.639h-146.922c-38.172,0-68.336-11.698-90.475-35.11c-22.148-23.404-33.228-59.232-33.228-107.492
	c0-48.254,11.078-84.084,33.228-107.492c22.139-23.395,52.303-35.111,90.475-35.111h146.922V675.331z"/>
<path fill="#003F5F" d="M3215.449,551.633v123.701h100.471c48.252,0,84.266,10.989,108.035,32.95
	c23.764,21.966,35.646,52.578,35.646,91.824v160.43h-57.797v-160.43c0-21.961-6.846-39.07-20.529-51.313
	c-13.684-12.238-35.465-18.363-65.354-18.363h-100.471v230.106h-57.259V551.633H3215.449z"/>
<path fill="#003F5F" d="M3597.881,634.276h-57.801v-66.434h57.801V634.276z M3597.338,960.534h-57.258V675.331h57.258V960.534z"/>
<path fill="#003F5F" d="M3837.164,675.331c48.617,0,84.717,10.896,108.305,32.679c23.58,21.793,35.377,52.492,35.377,92.1v160.43
	h-57.799v-160.43c0-22.686-6.746-39.971-20.258-51.854c-13.508-11.886-35.375-17.822-65.625-17.822h-93.447
	c-4.689,0-7.023,2.699-7.023,8.1V960.54h-57.258V719.631c0-16.927,3.06-28.535,9.187-34.845c6.116-6.297,16.379-9.453,30.787-9.453
	h117.755V675.331z"/>
<path fill="#003F5F" d="M4119.123,634.276h-57.799v-66.434h57.799V634.276z M4118.578,960.534h-57.254V675.331h57.254V960.534z"/>
<rect x="1348.131" y="1036.317" fill="none" width="2770.992" height="490.002"/>
</svg>
